<svg width="72" height="72" viewBox="0 0 72 72" fill="none" xmlns="http://www.w3.org/2000/svg">
<mask id="mask0_12_12" style="mask-type:alpha" maskUnits="userSpaceOnUse" x="3" y="0" width="50" height="72">
<path fill-rule="evenodd" clip-rule="evenodd" d="M53 0H3V72H53C43.0589 72 35 63.9411 35 54C35 44.0589 43.0589 36 53 36V0Z" fill="#D9D9D9"/>
</mask>
<g mask="url(#mask0_12_12)">
<path fill-rule="evenodd" clip-rule="evenodd" d="M9.06238 26.9694C9.67114 27.8085 14.8045 29.3912 22.4617 31.0398C30.1189 32.5074 38.0821 38.3022 44.275 36.5154C48.464 35.3044 53.0083 24.5146 53.0083 22.9121V22.7475C53.0083 21.6287 52.1692 20.7304 50.7443 19.9834C44.9035 16.9989 43.7979 15.8998 41.6327 16.4954C30.392 19.5984 10.5464 18.0124 9.06238 26.9694Z" fill="#802219"/>
<path fill-rule="evenodd" clip-rule="evenodd" d="M9.06238 48.8781C9.67114 49.7304 14.8045 51.3 22.4617 52.9519C31.0172 54.5116 38.4573 59.5956 44.6534 57.8055C48.8424 56.5946 53.0083 46.4266 53.0083 44.8208V44.6629C53.0083 43.5474 52.1692 42.6457 50.7443 41.9021C46.2889 39.5328 40.402 36.9234 38.2401 37.519C26.9797 40.6154 11.9285 41.2966 9.06238 48.8781Z" fill="#802219"/>
<path fill-rule="evenodd" clip-rule="evenodd" d="M44.6374 5.235C34.2851 8.22615 17.8618 9.91422 9.01337 9.91422V26.8114C9.01618 26.8695 9.03817 26.9251 9.07589 26.9694C15.1141 26.9694 33.7554 24.995 45.0026 21.9019C46.9642 21.4026 48.8875 20.7637 50.7579 19.99C52.1333 19.3714 53.0218 18.7199 53.0218 18.042V1C53.0086 2.60581 48.8263 4.02735 44.6374 5.235Z" fill="#DE3423"/>
<path fill-rule="evenodd" clip-rule="evenodd" d="M44.6371 27.1471C38.4409 28.9339 30.0795 30.2633 22.4618 31.0399C17.3482 31.5631 12.5703 31.8362 9.01312 31.8362V48.7202C9.01594 48.7783 9.03792 48.8339 9.07564 48.8782C15.1139 48.8782 33.7551 46.9038 45.0024 43.814C46.9635 43.3132 48.8867 42.6744 50.7576 41.9021C52.1331 41.2802 53.0215 40.6319 53.0215 39.9541V22.9121C53.0084 24.5146 48.826 25.9362 44.6371 27.1471Z" fill="#DE3423"/>
<path fill-rule="evenodd" clip-rule="evenodd" d="M44.6371 49.0723C38.441 50.8591 30.0796 52.1852 22.4618 52.9651C17.3417 53.4883 12.5571 53.7614 9 53.7614V70.7902C14.9757 70.7902 33.7124 68.8323 44.9892 65.726C49.1453 64.5809 53.0084 63.2778 53.0084 61.8628V44.8208C53.0084 46.4398 48.8261 47.8482 44.6371 49.0723Z" fill="#DE3423"/>
</g>
<circle cx="53" cy="54" r="17" fill="url(#paint0_linear_12_12)"/>
<path fill-rule="evenodd" clip-rule="evenodd" d="M52 47L43 45V61L52 63V47ZM63 45L54 47V63L63 61V45Z" fill="white"/>
<defs>
<linearGradient id="paint0_linear_12_12" x1="42.4113" y1="45.0287" x2="62.1625" y2="84.3959" gradientUnits="userSpaceOnUse">
<stop stop-color="#FE2857"/>
<stop offset="0.08008" stop-color="#FE295F"/>
<stop offset="0.20652" stop-color="#FF2D76"/>
<stop offset="0.30342" stop-color="#FF318C"/>
<stop offset="0.38458" stop-color="#EA3896"/>
<stop offset="0.55319" stop-color="#B248AE"/>
<stop offset="0.79231" stop-color="#5A63D6"/>
<stop offset="1" stop-color="#087CFA"/>
</linearGradient>
</defs>
</svg>
